<svg id="logosandtypes_com" xmlns="http://www.w3.org/2000/svg" viewBox="0 0 150 150.2"><style>.st1{fill:#8798be}</style><g id="Layer_3_2_"><g id="Layer_2_1_"><path id="Layer_3" d="M0 .2h150v150H0V.2z" fill="none"/></g></g><g id="jacadi"><path class="st1" d="M73.3 25s-7.8-4.9-15.4-6.5c-.3 0-.5 0-.3.5.5 1.4 6.2 12.4 10 24.9h36.2c3.8-12.4 9.5-23.8 10-24.9v-.8h-.3c-7.8 1.6-15.4 6.5-15.4 6.5C92.5 15.3 86.5 9.6 86 9.3h-.6c-.5.6-6.4 6.2-12.1 15.7zM88.2 85l12.4-32.7H70.3l2.7 7h17.8l-9.7 26.5h-.3c-30 4.6-45.4 22.7-45.2 36 0 1.9.3 3.8 1.1 5.4 1.9 4.3 4.9 6.8 8.7 7.8 2.7.8 5.7.8 8.4 0 3-.8 6.2-2.2 8.7-4.6 12.4-10 23.3-38.7 23.3-38.7 3.2-.3 8.4-.8 8.4-.8l2.4-6.5c-3.8.3-8.1.5-8.1.5h-.3zm-24.1 34.1c-11.9 15.4-28.1 8.9-20-5.4 9.7-17.3 33.5-20.8 34.3-21.1.3.3-5.7 15.4-14.3 26.5z"/></g></svg>